<mxfile host="app.diagrams.net" modified="2024-06-21T16:43:02.758Z" agent="Mozilla/5.0 (Macintosh; Intel Mac OS X 10_15_7) AppleWebKit/537.36 (KHTML, like Gecko) Chrome/125.0.0.0 Safari/537.36" etag="BROvNiFRp7Z9KP1GPjS-" version="24.5.5" type="github">
  <diagram id="C5RBs43oDa-KdzZeNtuy" name="Page-1">
    <mxGraphModel dx="2633" dy="2144" grid="1" gridSize="10" guides="1" tooltips="1" connect="1" arrows="1" fold="1" page="1" pageScale="1" pageWidth="827" pageHeight="1169" math="0" shadow="0">
      <root>
        <mxCell id="WIyWlLk6GJQsqaUBKTNV-0" />
        <mxCell id="WIyWlLk6GJQsqaUBKTNV-1" parent="WIyWlLk6GJQsqaUBKTNV-0" />
        <mxCell id="JjBhJZva2zvZL6BnCJSR-4" value="&lt;div&gt;складський товар&lt;div&gt;- складі&lt;/div&gt;&lt;div&gt;- кількість&lt;/div&gt;&lt;div&gt;- пендинг статус товар (доставка)&amp;nbsp;&lt;/div&gt;&lt;/div&gt;" style="whiteSpace=wrap;html=1;aspect=fixed;" parent="WIyWlLk6GJQsqaUBKTNV-1" vertex="1">
          <mxGeometry x="470" y="270" width="130" height="130" as="geometry" />
        </mxCell>
        <mxCell id="JjBhJZva2zvZL6BnCJSR-19" style="edgeStyle=orthogonalEdgeStyle;rounded=0;orthogonalLoop=1;jettySize=auto;html=1;exitX=1;exitY=0.5;exitDx=0;exitDy=0;entryX=0;entryY=0.5;entryDx=0;entryDy=0;" parent="WIyWlLk6GJQsqaUBKTNV-1" source="JjBhJZva2zvZL6BnCJSR-0" target="JjBhJZva2zvZL6BnCJSR-18" edge="1">
          <mxGeometry relative="1" as="geometry" />
        </mxCell>
        <mxCell id="JjBhJZva2zvZL6BnCJSR-0" value="&lt;div&gt;&lt;div&gt;товар&lt;/div&gt;&lt;div&gt;- властивості&lt;/div&gt;&lt;div&gt;&lt;br&gt;&lt;/div&gt;&lt;/div&gt;" style="whiteSpace=wrap;html=1;aspect=fixed;fillColor=#f8cecc;strokeColor=#b85450;" parent="WIyWlLk6GJQsqaUBKTNV-1" vertex="1">
          <mxGeometry x="10" y="10" width="130" height="130" as="geometry" />
        </mxCell>
        <mxCell id="3_Fjh7DuStV0mKfJS0zP-17" style="edgeStyle=orthogonalEdgeStyle;rounded=0;orthogonalLoop=1;jettySize=auto;html=1;exitX=0;exitY=0;exitDx=0;exitDy=0;entryX=1;entryY=0;entryDx=0;entryDy=0;" parent="WIyWlLk6GJQsqaUBKTNV-1" source="JjBhJZva2zvZL6BnCJSR-4" target="JjBhJZva2zvZL6BnCJSR-2" edge="1">
          <mxGeometry relative="1" as="geometry">
            <Array as="points">
              <mxPoint x="470" y="250" />
              <mxPoint x="130" y="250" />
            </Array>
          </mxGeometry>
        </mxCell>
        <mxCell id="3_Fjh7DuStV0mKfJS0zP-18" style="edgeStyle=orthogonalEdgeStyle;rounded=0;orthogonalLoop=1;jettySize=auto;html=1;exitX=1;exitY=0;exitDx=0;exitDy=0;entryX=0;entryY=0;entryDx=0;entryDy=0;" parent="WIyWlLk6GJQsqaUBKTNV-1" source="JjBhJZva2zvZL6BnCJSR-2" target="JjBhJZva2zvZL6BnCJSR-4" edge="1">
          <mxGeometry relative="1" as="geometry" />
        </mxCell>
        <mxCell id="JjBhJZva2zvZL6BnCJSR-2" value="склад:&lt;div&gt;CRUD складів&lt;/div&gt;&lt;div&gt;&lt;br&gt;&lt;/div&gt;&lt;div&gt;- залишок товарів&lt;/div&gt;" style="whiteSpace=wrap;html=1;aspect=fixed;" parent="WIyWlLk6GJQsqaUBKTNV-1" vertex="1">
          <mxGeometry y="290" width="130" height="130" as="geometry" />
        </mxCell>
        <mxCell id="JjBhJZva2zvZL6BnCJSR-38" style="edgeStyle=orthogonalEdgeStyle;rounded=0;orthogonalLoop=1;jettySize=auto;html=1;exitX=1;exitY=0.5;exitDx=0;exitDy=0;entryX=0;entryY=0.5;entryDx=0;entryDy=0;" parent="WIyWlLk6GJQsqaUBKTNV-1" source="JjBhJZva2zvZL6BnCJSR-3" target="JjBhJZva2zvZL6BnCJSR-5" edge="1">
          <mxGeometry relative="1" as="geometry" />
        </mxCell>
        <mxCell id="JjBhJZva2zvZL6BnCJSR-3" value="&lt;div&gt;постачальники:&lt;/div&gt;&lt;div&gt;- CRUD постачальників&lt;/div&gt;" style="whiteSpace=wrap;html=1;aspect=fixed;" parent="WIyWlLk6GJQsqaUBKTNV-1" vertex="1">
          <mxGeometry x="-310" y="730" width="130" height="130" as="geometry" />
        </mxCell>
        <mxCell id="3_Fjh7DuStV0mKfJS0zP-7" style="edgeStyle=orthogonalEdgeStyle;rounded=0;orthogonalLoop=1;jettySize=auto;html=1;exitX=0;exitY=0;exitDx=0;exitDy=0;entryX=0;entryY=0.5;entryDx=0;entryDy=0;" parent="WIyWlLk6GJQsqaUBKTNV-1" source="JjBhJZva2zvZL6BnCJSR-5" target="JjBhJZva2zvZL6BnCJSR-49" edge="1">
          <mxGeometry relative="1" as="geometry">
            <Array as="points">
              <mxPoint y="660" />
              <mxPoint x="-700" y="660" />
              <mxPoint x="-700" y="348" />
            </Array>
          </mxGeometry>
        </mxCell>
        <mxCell id="YqZIV_LMbBWJuxCMvY5n-4" style="edgeStyle=orthogonalEdgeStyle;rounded=0;orthogonalLoop=1;jettySize=auto;html=1;exitX=1;exitY=1;exitDx=0;exitDy=0;entryX=0.5;entryY=1;entryDx=0;entryDy=0;" edge="1" parent="WIyWlLk6GJQsqaUBKTNV-1" source="JjBhJZva2zvZL6BnCJSR-5" target="JjBhJZva2zvZL6BnCJSR-4">
          <mxGeometry relative="1" as="geometry" />
        </mxCell>
        <mxCell id="JjBhJZva2zvZL6BnCJSR-5" value="постачання:&lt;div&gt;CRUD постачання&lt;/div&gt;&lt;div&gt;- постачальник&lt;/div&gt;&lt;div&gt;- дата&lt;/div&gt;&lt;div&gt;- номенклатура&lt;/div&gt;&lt;div&gt;- сумма&lt;/div&gt;" style="whiteSpace=wrap;html=1;aspect=fixed;" parent="WIyWlLk6GJQsqaUBKTNV-1" vertex="1">
          <mxGeometry y="730" width="130" height="130" as="geometry" />
        </mxCell>
        <mxCell id="JjBhJZva2zvZL6BnCJSR-12" value="на основі фактично поставленних товарів створюємо публічні товари" style="text;html=1;align=center;verticalAlign=middle;whiteSpace=wrap;rounded=0;" parent="WIyWlLk6GJQsqaUBKTNV-1" vertex="1">
          <mxGeometry x="320" y="-50" width="220" height="30" as="geometry" />
        </mxCell>
        <mxCell id="JjBhJZva2zvZL6BnCJSR-16" value="запис постачання" style="text;html=1;align=center;verticalAlign=middle;whiteSpace=wrap;rounded=0;" parent="WIyWlLk6GJQsqaUBKTNV-1" vertex="1">
          <mxGeometry x="170" y="790" width="110" height="30" as="geometry" />
        </mxCell>
        <mxCell id="JjBhJZva2zvZL6BnCJSR-52" style="edgeStyle=orthogonalEdgeStyle;rounded=0;orthogonalLoop=1;jettySize=auto;html=1;exitX=0;exitY=0;exitDx=0;exitDy=0;entryX=0;entryY=0;entryDx=0;entryDy=0;" parent="WIyWlLk6GJQsqaUBKTNV-1" source="JjBhJZva2zvZL6BnCJSR-18" target="JjBhJZva2zvZL6BnCJSR-49" edge="1">
          <mxGeometry relative="1" as="geometry">
            <Array as="points">
              <mxPoint x="201" y="-50" />
              <mxPoint x="-680" y="-50" />
            </Array>
          </mxGeometry>
        </mxCell>
        <mxCell id="YqZIV_LMbBWJuxCMvY5n-3" style="edgeStyle=orthogonalEdgeStyle;rounded=0;orthogonalLoop=1;jettySize=auto;html=1;exitX=1;exitY=0.5;exitDx=0;exitDy=0;" edge="1" parent="WIyWlLk6GJQsqaUBKTNV-1" source="JjBhJZva2zvZL6BnCJSR-18">
          <mxGeometry relative="1" as="geometry">
            <mxPoint x="540" y="260" as="targetPoint" />
          </mxGeometry>
        </mxCell>
        <mxCell id="YqZIV_LMbBWJuxCMvY5n-7" style="edgeStyle=orthogonalEdgeStyle;rounded=0;orthogonalLoop=1;jettySize=auto;html=1;exitX=1;exitY=0;exitDx=0;exitDy=0;entryX=1;entryY=0.5;entryDx=0;entryDy=0;" edge="1" parent="WIyWlLk6GJQsqaUBKTNV-1" source="JjBhJZva2zvZL6BnCJSR-18" target="YqZIV_LMbBWJuxCMvY5n-6">
          <mxGeometry relative="1" as="geometry">
            <Array as="points">
              <mxPoint x="574" y="-240" />
              <mxPoint x="-510" y="-240" />
            </Array>
          </mxGeometry>
        </mxCell>
        <mxCell id="JjBhJZva2zvZL6BnCJSR-18" value="&lt;b&gt;продаж&lt;/b&gt;&lt;div&gt;- кількість&lt;/div&gt;&lt;div&gt;- вартість&lt;/div&gt;&lt;div&gt;- номенклатура&lt;/div&gt;" style="ellipse;whiteSpace=wrap;html=1;aspect=fixed;" parent="WIyWlLk6GJQsqaUBKTNV-1" vertex="1">
          <mxGeometry x="480" y="-130" width="110" height="110" as="geometry" />
        </mxCell>
        <mxCell id="JjBhJZva2zvZL6BnCJSR-23" value="оновлення кіл-ті&amp;nbsp;&lt;div&gt;склад&lt;/div&gt;" style="text;html=1;align=center;verticalAlign=middle;whiteSpace=wrap;rounded=0;" parent="WIyWlLk6GJQsqaUBKTNV-1" vertex="1">
          <mxGeometry x="330" y="210" width="115" height="30" as="geometry" />
        </mxCell>
        <mxCell id="YqZIV_LMbBWJuxCMvY5n-1" style="edgeStyle=orthogonalEdgeStyle;rounded=0;orthogonalLoop=1;jettySize=auto;html=1;exitX=1;exitY=0.25;exitDx=0;exitDy=0;entryX=0;entryY=0.75;entryDx=0;entryDy=0;" edge="1" parent="WIyWlLk6GJQsqaUBKTNV-1" source="JjBhJZva2zvZL6BnCJSR-26" target="JjBhJZva2zvZL6BnCJSR-0">
          <mxGeometry relative="1" as="geometry" />
        </mxCell>
        <mxCell id="JjBhJZva2zvZL6BnCJSR-26" value="атрибути товару" style="whiteSpace=wrap;html=1;aspect=fixed;" parent="WIyWlLk6GJQsqaUBKTNV-1" vertex="1">
          <mxGeometry x="-280" y="140" width="130" height="130" as="geometry" />
        </mxCell>
        <mxCell id="JjBhJZva2zvZL6BnCJSR-29" style="edgeStyle=orthogonalEdgeStyle;rounded=0;orthogonalLoop=1;jettySize=auto;html=1;exitX=1;exitY=0.5;exitDx=0;exitDy=0;entryX=0;entryY=0.5;entryDx=0;entryDy=0;" parent="WIyWlLk6GJQsqaUBKTNV-1" source="JjBhJZva2zvZL6BnCJSR-28" target="JjBhJZva2zvZL6BnCJSR-0" edge="1">
          <mxGeometry relative="1" as="geometry" />
        </mxCell>
        <mxCell id="JjBhJZva2zvZL6BnCJSR-28" value="категорії" style="whiteSpace=wrap;html=1;aspect=fixed;" parent="WIyWlLk6GJQsqaUBKTNV-1" vertex="1">
          <mxGeometry x="-280" width="130" height="130" as="geometry" />
        </mxCell>
        <mxCell id="JjBhJZva2zvZL6BnCJSR-40" style="edgeStyle=orthogonalEdgeStyle;rounded=0;orthogonalLoop=1;jettySize=auto;html=1;exitX=0.5;exitY=1;exitDx=0;exitDy=0;entryX=0.5;entryY=0;entryDx=0;entryDy=0;" parent="WIyWlLk6GJQsqaUBKTNV-1" source="JjBhJZva2zvZL6BnCJSR-30" target="JjBhJZva2zvZL6BnCJSR-39" edge="1">
          <mxGeometry relative="1" as="geometry">
            <Array as="points">
              <mxPoint x="-211" y="408" />
            </Array>
          </mxGeometry>
        </mxCell>
        <mxCell id="JjBhJZva2zvZL6BnCJSR-30" value="фінанси&lt;div&gt;- рахунки&lt;/div&gt;&lt;div&gt;- сейф&lt;/div&gt;&lt;div&gt;- каси&lt;/div&gt;&lt;div&gt;- категорії\статті&lt;/div&gt;&lt;div&gt;- витрати&lt;/div&gt;&lt;div&gt;- дохід&lt;/div&gt;&lt;div&gt;- борги?&lt;/div&gt;&lt;div&gt;- касові зміни?&lt;/div&gt;" style="whiteSpace=wrap;html=1;aspect=fixed;fillColor=#f8cecc;strokeColor=#b85450;" parent="WIyWlLk6GJQsqaUBKTNV-1" vertex="1">
          <mxGeometry x="-275" y="282.5" width="125" height="125" as="geometry" />
        </mxCell>
        <mxCell id="JjBhJZva2zvZL6BnCJSR-34" style="edgeStyle=orthogonalEdgeStyle;rounded=0;orthogonalLoop=1;jettySize=auto;html=1;exitX=0.07;exitY=0.4;exitDx=0;exitDy=0;exitPerimeter=0;entryX=0;entryY=0.5;entryDx=0;entryDy=0;" parent="WIyWlLk6GJQsqaUBKTNV-1" source="JjBhJZva2zvZL6BnCJSR-32" target="JjBhJZva2zvZL6BnCJSR-30" edge="1">
          <mxGeometry relative="1" as="geometry" />
        </mxCell>
        <mxCell id="JjBhJZva2zvZL6BnCJSR-32" value="каса:&lt;div&gt;кеш/безготівка&lt;br&gt;&lt;div&gt;під час продажу кошти потрапляють в касу&lt;/div&gt;&lt;/div&gt;" style="ellipse;shape=cloud;whiteSpace=wrap;html=1;" parent="WIyWlLk6GJQsqaUBKTNV-1" vertex="1">
          <mxGeometry x="170" y="-190" width="120" height="80" as="geometry" />
        </mxCell>
        <mxCell id="JjBhJZva2zvZL6BnCJSR-35" value="інкасація\закриття каси&lt;div&gt;кошти потрапляють на рахунок&lt;/div&gt;" style="text;html=1;align=center;verticalAlign=middle;whiteSpace=wrap;rounded=0;" parent="WIyWlLk6GJQsqaUBKTNV-1" vertex="1">
          <mxGeometry x="-230" y="-190" width="230" height="30" as="geometry" />
        </mxCell>
        <mxCell id="JjBhJZva2zvZL6BnCJSR-37" value="оплата постачання" style="text;html=1;align=center;verticalAlign=middle;resizable=0;points=[];autosize=1;strokeColor=none;fillColor=none;" parent="WIyWlLk6GJQsqaUBKTNV-1" vertex="1">
          <mxGeometry y="470" width="130" height="30" as="geometry" />
        </mxCell>
        <mxCell id="JjBhJZva2zvZL6BnCJSR-51" style="edgeStyle=orthogonalEdgeStyle;rounded=0;orthogonalLoop=1;jettySize=auto;html=1;exitX=0;exitY=0.5;exitDx=0;exitDy=0;entryX=0;entryY=1;entryDx=0;entryDy=0;" parent="WIyWlLk6GJQsqaUBKTNV-1" source="JjBhJZva2zvZL6BnCJSR-39" target="JjBhJZva2zvZL6BnCJSR-49" edge="1">
          <mxGeometry relative="1" as="geometry" />
        </mxCell>
        <mxCell id="JjBhJZva2zvZL6BnCJSR-39" value="інші розрахунки&lt;div&gt;ЗП&lt;/div&gt;&lt;div&gt;Орнеда&lt;br&gt;Послуги т.д.&lt;/div&gt;" style="ellipse;whiteSpace=wrap;html=1;aspect=fixed;" parent="WIyWlLk6GJQsqaUBKTNV-1" vertex="1">
          <mxGeometry x="-272.5" y="523" width="122.5" height="122.5" as="geometry" />
        </mxCell>
        <mxCell id="JjBhJZva2zvZL6BnCJSR-41" value="" style="whiteSpace=wrap;html=1;aspect=fixed;" parent="WIyWlLk6GJQsqaUBKTNV-1" vertex="1">
          <mxGeometry x="-310" y="-585" width="80" height="80" as="geometry" />
        </mxCell>
        <mxCell id="JjBhJZva2zvZL6BnCJSR-42" value="сутності" style="text;html=1;align=center;verticalAlign=middle;resizable=0;points=[];autosize=1;strokeColor=none;fillColor=none;" parent="WIyWlLk6GJQsqaUBKTNV-1" vertex="1">
          <mxGeometry x="-215" y="-562" width="70" height="30" as="geometry" />
        </mxCell>
        <mxCell id="JjBhJZva2zvZL6BnCJSR-43" value="" style="ellipse;whiteSpace=wrap;html=1;aspect=fixed;" parent="WIyWlLk6GJQsqaUBKTNV-1" vertex="1">
          <mxGeometry x="-310" y="-470" width="80" height="80" as="geometry" />
        </mxCell>
        <mxCell id="JjBhJZva2zvZL6BnCJSR-44" value="прецеденти&lt;div&gt;&lt;br&gt;&lt;/div&gt;" style="text;html=1;align=center;verticalAlign=middle;resizable=0;points=[];autosize=1;strokeColor=none;fillColor=none;" parent="WIyWlLk6GJQsqaUBKTNV-1" vertex="1">
          <mxGeometry x="-225" y="-450" width="90" height="40" as="geometry" />
        </mxCell>
        <mxCell id="JjBhJZva2zvZL6BnCJSR-45" value="" style="ellipse;shape=cloud;whiteSpace=wrap;html=1;" parent="WIyWlLk6GJQsqaUBKTNV-1" vertex="1">
          <mxGeometry x="-330" y="-360" width="120" height="80" as="geometry" />
        </mxCell>
        <mxCell id="JjBhJZva2zvZL6BnCJSR-46" value="manual прецеденти:&lt;br&gt;- каси&lt;div&gt;- інвентаризація&lt;/div&gt;" style="text;html=1;align=center;verticalAlign=middle;resizable=0;points=[];autosize=1;strokeColor=none;fillColor=none;" parent="WIyWlLk6GJQsqaUBKTNV-1" vertex="1">
          <mxGeometry x="-200" y="-345" width="140" height="60" as="geometry" />
        </mxCell>
        <mxCell id="JjBhJZva2zvZL6BnCJSR-49" value="статистика" style="whiteSpace=wrap;html=1;aspect=fixed;fillColor=#f8cecc;strokeColor=#b85450;" parent="WIyWlLk6GJQsqaUBKTNV-1" vertex="1">
          <mxGeometry x="-680" y="285" width="125" height="125" as="geometry" />
        </mxCell>
        <mxCell id="JjBhJZva2zvZL6BnCJSR-54" style="edgeStyle=orthogonalEdgeStyle;rounded=0;orthogonalLoop=1;jettySize=auto;html=1;exitX=0.8;exitY=0.8;exitDx=0;exitDy=0;exitPerimeter=0;entryX=0;entryY=0;entryDx=0;entryDy=0;" parent="WIyWlLk6GJQsqaUBKTNV-1" source="JjBhJZva2zvZL6BnCJSR-53" target="JjBhJZva2zvZL6BnCJSR-2" edge="1">
          <mxGeometry relative="1" as="geometry" />
        </mxCell>
        <mxCell id="JjBhJZva2zvZL6BnCJSR-53" value="інвентаризація" style="ellipse;shape=cloud;whiteSpace=wrap;html=1;" parent="WIyWlLk6GJQsqaUBKTNV-1" vertex="1">
          <mxGeometry x="-140" y="180" width="120" height="80" as="geometry" />
        </mxCell>
        <mxCell id="JjBhJZva2zvZL6BnCJSR-55" value="&lt;div&gt;списання&lt;/div&gt;&lt;div&gt;переміщення&lt;/div&gt;" style="ellipse;whiteSpace=wrap;html=1;aspect=fixed;" parent="WIyWlLk6GJQsqaUBKTNV-1" vertex="1">
          <mxGeometry x="-120" y="295" width="90" height="90" as="geometry" />
        </mxCell>
        <mxCell id="JjBhJZva2zvZL6BnCJSR-56" style="edgeStyle=orthogonalEdgeStyle;rounded=0;orthogonalLoop=1;jettySize=auto;html=1;exitX=1;exitY=0.5;exitDx=0;exitDy=0;entryX=-0.008;entryY=0.421;entryDx=0;entryDy=0;entryPerimeter=0;" parent="WIyWlLk6GJQsqaUBKTNV-1" source="JjBhJZva2zvZL6BnCJSR-55" target="JjBhJZva2zvZL6BnCJSR-2" edge="1">
          <mxGeometry relative="1" as="geometry" />
        </mxCell>
        <mxCell id="3_Fjh7DuStV0mKfJS0zP-5" style="edgeStyle=orthogonalEdgeStyle;rounded=0;orthogonalLoop=1;jettySize=auto;html=1;exitX=0.31;exitY=0.8;exitDx=0;exitDy=0;exitPerimeter=0;entryX=1;entryY=0.5;entryDx=0;entryDy=0;" parent="WIyWlLk6GJQsqaUBKTNV-1" source="3_Fjh7DuStV0mKfJS0zP-2" target="JjBhJZva2zvZL6BnCJSR-5" edge="1">
          <mxGeometry relative="1" as="geometry">
            <Array as="points">
              <mxPoint x="317" y="795" />
            </Array>
          </mxGeometry>
        </mxCell>
        <mxCell id="3_Fjh7DuStV0mKfJS0zP-2" value="постачання" style="ellipse;shape=cloud;whiteSpace=wrap;html=1;" parent="WIyWlLk6GJQsqaUBKTNV-1" vertex="1">
          <mxGeometry x="280" y="407.5" width="120" height="80" as="geometry" />
        </mxCell>
        <mxCell id="3_Fjh7DuStV0mKfJS0zP-8" style="edgeStyle=orthogonalEdgeStyle;rounded=0;orthogonalLoop=1;jettySize=auto;html=1;exitX=1;exitY=1;exitDx=0;exitDy=0;entryX=0.13;entryY=0.77;entryDx=0;entryDy=0;entryPerimeter=0;" parent="WIyWlLk6GJQsqaUBKTNV-1" source="JjBhJZva2zvZL6BnCJSR-30" target="3_Fjh7DuStV0mKfJS0zP-2" edge="1">
          <mxGeometry relative="1" as="geometry" />
        </mxCell>
        <mxCell id="3_Fjh7DuStV0mKfJS0zP-9" value="формування&lt;div&gt;по номенклатурі&lt;/div&gt;" style="text;html=1;align=center;verticalAlign=middle;resizable=0;points=[];autosize=1;strokeColor=none;fillColor=none;" parent="WIyWlLk6GJQsqaUBKTNV-1" vertex="1">
          <mxGeometry x="340" y="333" width="120" height="40" as="geometry" />
        </mxCell>
        <mxCell id="3_Fjh7DuStV0mKfJS0zP-12" style="edgeStyle=orthogonalEdgeStyle;rounded=0;orthogonalLoop=1;jettySize=auto;html=1;exitX=0.55;exitY=0.95;exitDx=0;exitDy=0;exitPerimeter=0;entryX=0;entryY=0.75;entryDx=0;entryDy=0;" parent="WIyWlLk6GJQsqaUBKTNV-1" source="3_Fjh7DuStV0mKfJS0zP-11" target="JjBhJZva2zvZL6BnCJSR-30" edge="1">
          <mxGeometry relative="1" as="geometry" />
        </mxCell>
        <mxCell id="3_Fjh7DuStV0mKfJS0zP-11" value="внесення,&lt;div&gt;переказ,&lt;br&gt;&lt;div&gt;інкасація (вилучення) коштів&lt;/div&gt;&lt;/div&gt;" style="ellipse;shape=cloud;whiteSpace=wrap;html=1;" parent="WIyWlLk6GJQsqaUBKTNV-1" vertex="1">
          <mxGeometry x="-580" y="10" width="230" height="90" as="geometry" />
        </mxCell>
        <mxCell id="YqZIV_LMbBWJuxCMvY5n-0" style="edgeStyle=orthogonalEdgeStyle;rounded=0;orthogonalLoop=1;jettySize=auto;html=1;exitX=1;exitY=1;exitDx=0;exitDy=0;entryX=0.25;entryY=0.25;entryDx=0;entryDy=0;entryPerimeter=0;" edge="1" parent="WIyWlLk6GJQsqaUBKTNV-1" source="JjBhJZva2zvZL6BnCJSR-0" target="3_Fjh7DuStV0mKfJS0zP-2">
          <mxGeometry relative="1" as="geometry" />
        </mxCell>
        <mxCell id="YqZIV_LMbBWJuxCMvY5n-8" style="edgeStyle=orthogonalEdgeStyle;rounded=0;orthogonalLoop=1;jettySize=auto;html=1;exitX=0;exitY=0.5;exitDx=0;exitDy=0;entryX=0;entryY=0.25;entryDx=0;entryDy=0;" edge="1" parent="WIyWlLk6GJQsqaUBKTNV-1" source="YqZIV_LMbBWJuxCMvY5n-6" target="JjBhJZva2zvZL6BnCJSR-49">
          <mxGeometry relative="1" as="geometry" />
        </mxCell>
        <mxCell id="YqZIV_LMbBWJuxCMvY5n-6" value="продажі&lt;div&gt;&lt;br&gt;&lt;/div&gt;" style="whiteSpace=wrap;html=1;aspect=fixed;" vertex="1" parent="WIyWlLk6GJQsqaUBKTNV-1">
          <mxGeometry x="-590" y="-210" width="80" height="80" as="geometry" />
        </mxCell>
        <mxCell id="YqZIV_LMbBWJuxCMvY5n-9" style="edgeStyle=orthogonalEdgeStyle;rounded=0;orthogonalLoop=1;jettySize=auto;html=1;exitX=1;exitY=0.5;exitDx=0;exitDy=0;entryX=0.4;entryY=0.1;entryDx=0;entryDy=0;entryPerimeter=0;" edge="1" parent="WIyWlLk6GJQsqaUBKTNV-1" source="YqZIV_LMbBWJuxCMvY5n-6" target="JjBhJZva2zvZL6BnCJSR-32">
          <mxGeometry relative="1" as="geometry">
            <Array as="points">
              <mxPoint x="-510" y="-210" />
              <mxPoint x="218" y="-210" />
            </Array>
          </mxGeometry>
        </mxCell>
      </root>
    </mxGraphModel>
  </diagram>
</mxfile>
